<svg width="112" height="112" viewBox="0 0 112 112" fill="none" xmlns="http://www.w3.org/2000/svg">
<path d="M38.3034 50.4L38.7034 46.6H38.5034L36.5834 50.04L32.5034 56.88H31.5034L27.2234 50L25.3834 46.6H25.1834L25.6634 50.36V69H22.4234V41H25.5034L32.1434 51.64H32.2234L38.6234 41H41.6234V69H38.3034V50.4Z" fill="#FF1654"/>
<path d="M45.9278 54.04H54.5678V45.2H57.4478V54.04H66.0878V56.92H57.4478V65.76H54.5678V56.92H45.9278V54.04Z" fill="#575757"/>
<path d="M88.8722 47.4C88.8722 48.0667 88.7655 48.7467 88.5522 49.44C88.3389 50.1333 88.0189 50.7867 87.5922 51.4C87.1655 51.9867 86.6189 52.5067 85.9522 52.96C85.2855 53.4133 84.4989 53.76 83.5922 54V54.16C84.3922 54.2933 85.1522 54.52 85.8722 54.84C86.6189 55.16 87.2722 55.6 87.8322 56.16C88.3922 56.72 88.8455 57.4 89.1922 58.2C89.5389 59 89.7122 59.9467 89.7122 61.04C89.7122 62.48 89.4055 63.7333 88.7922 64.8C88.2055 65.84 87.4189 66.6933 86.4322 67.36C85.4722 68.0267 84.3655 68.52 83.1122 68.84C81.8589 69.16 80.5789 69.32 79.2722 69.32C78.8189 69.32 78.2855 69.32 77.6722 69.32C77.0589 69.32 76.4189 69.2933 75.7522 69.24C75.0855 69.2133 74.4189 69.16 73.7522 69.08C73.0855 69.0267 72.4989 68.9333 71.9922 68.8V41.24C72.9789 41.08 74.1255 40.9467 75.4322 40.84C76.7389 40.7333 78.1655 40.68 79.7122 40.68C80.7522 40.68 81.8055 40.7733 82.8722 40.96C83.9655 41.12 84.9522 41.4533 85.8322 41.96C86.7122 42.44 87.4322 43.12 87.9922 44C88.5789 44.88 88.8722 46.0133 88.8722 47.4ZM79.5922 66.44C80.4455 66.44 81.2722 66.3333 82.0722 66.12C82.8722 65.9067 83.5789 65.5867 84.1922 65.16C84.8055 64.7333 85.2855 64.2 85.6322 63.56C86.0055 62.92 86.1922 62.16 86.1922 61.28C86.1922 60.1867 85.9655 59.3067 85.5122 58.64C85.0855 57.9733 84.5122 57.4533 83.7922 57.08C83.0989 56.7067 82.3122 56.4533 81.4322 56.32C80.5522 56.1867 79.6722 56.12 78.7922 56.12H75.3122V66.16C75.4989 66.2133 75.7655 66.2533 76.1122 66.28C76.4589 66.3067 76.8322 66.3333 77.2322 66.36C77.6322 66.3867 78.0455 66.4133 78.4722 66.44C78.8989 66.44 79.2722 66.44 79.5922 66.44ZM77.3922 53.32C77.8455 53.32 78.3922 53.3067 79.0322 53.28C79.6722 53.2533 80.2055 53.2133 80.6322 53.16C81.2722 52.9467 81.8722 52.6933 82.4322 52.4C82.9922 52.08 83.4855 51.7067 83.9122 51.28C84.3655 50.8533 84.7122 50.3733 84.9522 49.84C85.2189 49.3067 85.3522 48.72 85.3522 48.08C85.3522 47.2 85.1789 46.4667 84.8322 45.88C84.5122 45.2933 84.0722 44.8267 83.5122 44.48C82.9522 44.1333 82.3122 43.8933 81.5922 43.76C80.8722 43.6267 80.1389 43.56 79.3922 43.56C78.5122 43.56 77.6989 43.5867 76.9522 43.64C76.2322 43.6667 75.6855 43.72 75.3122 43.8V53.32H77.3922Z" fill="#247BA0"/>
<path fill-rule="evenodd" clip-rule="evenodd" d="M56 102C81.4051 102 102 81.4051 102 56C102 30.5949 81.4051 10 56 10C30.5949 10 10 30.5949 10 56C10 81.4051 30.5949 102 56 102Z" stroke="#70C1B3"/>
</svg>
